<?xml version="1.0" standalone="no"?>
<!DOCTYPE svg PUBLIC "-//W3C//DTD SVG 20010904//EN"
 "http://www.w3.org/TR/2001/REC-SVG-20010904/DTD/svg10.dtd">
<svg version="1.0" xmlns="http://www.w3.org/2000/svg"
 width="1117.000000pt" height="313.000000pt" viewBox="0 0 1117.000000 313.000000"
 preserveAspectRatio="xMidYMid meet">

<g transform="translate(0.000000,313.000000) scale(0.100000,-0.100000)"
fill="#000000" stroke="none">
<path d="M1295 3114 c-135 -24 -360 -96 -388 -124 -5 -4 19 -55 52 -113 34
-58 61 -110 61 -114 -1 -8 -220 -137 -225 -131 -1 2 -28 48 -59 103 -32 55
-62 104 -66 109 -23 23 -262 -198 -362 -335 -103 -140 -232 -389 -211 -409 4
-5 37 -16 73 -25 36 -9 88 -23 117 -31 l51 -15 -30 -117 c-17 -64 -34 -121
-39 -126 -4 -5 -59 5 -125 23 -64 17 -119 29 -122 26 -25 -25 -30 -398 -7
-531 25 -140 95 -367 124 -397 4 -4 55 19 113 53 58 33 109 60 114 60 9 -1
138 -220 132 -224 -2 -2 -43 -26 -93 -54 -143 -81 -136 -70 -86 -137 142 -188
341 -348 566 -456 152 -73 142 -76 180 66 28 103 35 120 51 117 43 -7 220 -56
227 -62 5 -4 -6 -60 -23 -125 -23 -87 -29 -120 -20 -129 7 -7 88 -11 258 -11
219 0 257 3 337 22 91 22 227 66 298 97 l38 17 -32 57 c-18 31 -47 82 -65 112
-18 30 -29 58 -26 62 4 3 54 34 112 67 121 71 102 78 183 -66 29 -51 55 -93
59 -93 3 0 34 21 68 46 90 68 231 216 306 319 60 85 190 327 196 369 3 16 -14
23 -115 51 -64 18 -120 34 -123 37 -8 9 58 248 69 248 6 0 62 -14 125 -31 62
-17 116 -29 118 -27 11 11 24 159 24 273 0 146 -18 286 -55 421 -22 79 -77
230 -90 242 -2 3 -52 -23 -109 -57 -58 -33 -109 -61 -114 -61 -9 0 -132 205
-132 218 0 4 50 36 110 70 61 35 110 65 110 67 0 2 -27 38 -61 80 -117 147
-255 269 -415 365 -84 51 -247 130 -270 130 -6 0 -26 -56 -44 -125 -27 -103
-35 -125 -49 -121 -9 3 -61 17 -116 32 -55 14 -105 29 -111 33 -8 4 -1 43 22
126 18 65 31 121 29 124 -24 23 -415 27 -540 5z m502 -1083 c3 -13 17 -22 44
-26 22 -4 39 -12 39 -20 0 -7 9 -15 20 -18 12 -3 20 -14 20 -26 0 -14 6 -21
20 -21 13 0 20 -7 20 -20 0 -13 7 -20 20 -20 13 0 20 -7 20 -20 0 -15 7 -20
26 -20 14 0 22 -4 19 -10 -3 -5 -3 -26 1 -45 5 -29 10 -35 25 -30 18 6 19 -3
19 -205 0 -201 -1 -212 -19 -217 -14 -4 -21 -15 -23 -42 -2 -29 -8 -37 -25
-39 -15 -2 -23 -10 -23 -23 0 -12 -7 -19 -20 -19 -15 0 -20 -7 -20 -25 0 -18
-5 -25 -20 -25 -13 0 -20 -7 -20 -20 0 -13 -7 -20 -20 -20 -13 0 -20 -7 -20
-20 0 -17 -7 -20 -45 -20 -38 0 -45 -3 -43 -17 3 -17 -13 -18 -205 -21 -202
-2 -209 -2 -214 18 -4 15 -14 20 -40 20 -26 0 -36 5 -40 20 -3 11 -14 20 -24
20 -12 0 -19 7 -19 19 0 13 -8 21 -22 23 -15 2 -24 11 -26 26 -2 14 -10 22
-23 22 -12 0 -19 7 -19 19 0 10 -9 21 -20 24 -15 4 -20 14 -20 40 0 26 -5 36
-20 40 -19 5 -20 14 -20 210 0 196 1 205 20 210 15 4 20 14 20 42 0 28 5 38
20 42 11 3 20 12 20 20 0 8 9 17 20 20 11 3 20 14 20 24 0 14 7 19 25 19 20 0
25 5 25 25 0 18 5 25 20 25 11 0 20 6 20 14 0 9 15 17 39 21 27 4 41 13 44 26
5 18 16 19 212 19 196 0 207 -1 212 -19z"/>
</g>
</svg>
