<?xml version="1.0" standalone="no"?>
<!DOCTYPE svg PUBLIC "-//W3C//DTD SVG 20010904//EN"
 "http://www.w3.org/TR/2001/REC-SVG-20010904/DTD/svg10.dtd">
<svg version="1.0" xmlns="http://www.w3.org/2000/svg"
 width="1117.000000pt" height="313.000000pt" viewBox="0 0 1117.000000 313.000000"
 preserveAspectRatio="xMidYMid meet">

<g transform="translate(0.000000,313.000000) scale(0.100000,-0.100000)"
fill="#000000" stroke="none">
<path d="M1295 3114 c-135 -24 -360 -96 -388 -124 -5 -4 19 -55 52 -113 34
-58 61 -110 61 -114 -1 -8 -220 -137 -225 -131 -1 2 -28 48 -59 103 -32 55
-62 104 -66 109 -23 23 -262 -198 -362 -335 -103 -140 -232 -389 -211 -409 4
-5 37 -16 73 -25 36 -9 88 -23 117 -31 l51 -15 -30 -117 c-17 -64 -34 -121
-39 -126 -4 -5 -59 5 -125 23 -64 17 -119 29 -122 26 -25 -25 -30 -398 -7
-531 25 -140 95 -367 124 -397 4 -4 55 19 113 53 58 33 109 60 114 60 9 -1
138 -220 132 -224 -2 -2 -43 -26 -93 -54 -143 -81 -136 -70 -86 -137 142 -188
341 -348 566 -456 152 -73 142 -76 180 66 28 103 35 120 51 117 43 -7 220 -56
227 -62 5 -4 -6 -60 -23 -125 -23 -87 -29 -120 -20 -129 7 -7 88 -11 258 -11
219 0 257 3 337 22 91 22 227 66 298 97 l38 17 -32 57 c-18 31 -47 82 -65 112
-18 30 -29 58 -26 62 4 3 54 34 112 67 121 71 102 78 183 -66 29 -51 55 -93
59 -93 3 0 34 21 68 46 90 68 231 216 306 319 60 85 190 327 196 369 3 16 -14
23 -115 51 -64 18 -120 34 -123 37 -8 9 58 248 69 248 6 0 62 -14 125 -31 62
-17 116 -29 118 -27 11 11 24 159 24 273 0 146 -18 286 -55 421 -22 79 -77
230 -90 242 -2 3 -52 -23 -109 -57 -58 -33 -109 -61 -114 -61 -9 0 -132 205
-132 218 0 4 50 36 110 70 61 35 110 65 110 67 0 2 -27 38 -61 80 -117 147
-255 269 -415 365 -84 51 -247 130 -270 130 -6 0 -26 -56 -44 -125 -27 -103
-35 -125 -49 -121 -9 3 -61 17 -116 32 -55 14 -105 29 -111 33 -8 4 -1 43 22
126 18 65 31 121 29 124 -24 23 -415 27 -540 5z m502 -1083 c3 -13 17 -22 44
-26 22 -4 39 -12 39 -20 0 -7 9 -15 20 -18 12 -3 20 -14 20 -26 0 -14 6 -21
20 -21 13 0 20 -7 20 -20 0 -13 7 -20 20 -20 13 0 20 -7 20 -20 0 -15 7 -20
26 -20 14 0 22 -4 19 -10 -3 -5 -3 -26 1 -45 5 -29 10 -35 25 -30 18 6 19 -3
19 -205 0 -201 -1 -212 -19 -217 -14 -4 -21 -15 -23 -42 -2 -29 -8 -37 -25
-39 -15 -2 -23 -10 -23 -23 0 -12 -7 -19 -20 -19 -15 0 -20 -7 -20 -25 0 -18
-5 -25 -20 -25 -13 0 -20 -7 -20 -20 0 -13 -7 -20 -20 -20 -13 0 -20 -7 -20
-20 0 -17 -7 -20 -45 -20 -38 0 -45 -3 -43 -17 3 -17 -13 -18 -205 -21 -202
-2 -209 -2 -214 18 -4 15 -14 20 -40 20 -26 0 -36 5 -40 20 -3 11 -14 20 -24
20 -12 0 -19 7 -19 19 0 13 -8 21 -22 23 -15 2 -24 11 -26 26 -2 14 -10 22
-23 22 -12 0 -19 7 -19 19 0 10 -9 21 -20 24 -15 4 -20 14 -20 40 0 26 -5 36
-20 40 -19 5 -20 14 -20 210 0 196 1 205 20 210 15 4 20 14 20 42 0 28 5 38
20 42 11 3 20 12 20 20 0 8 9 17 20 20 11 3 20 14 20 24 0 14 7 19 25 19 20 0
25 5 25 25 0 18 5 25 20 25 11 0 20 6 20 14 0 9 15 17 39 21 27 4 41 13 44 26
5 18 16 19 212 19 196 0 207 -1 212 -19z"/>
<path d="M7186 2274 c-168 -40 -287 -159 -343 -339 -16 -53 -18 -98 -18 -375
0 -277 2 -322 18 -375 52 -167 147 -269 303 -327 50 -18 80 -22 194 -22 114 0
144 4 194 22 156 58 251 160 303 327 16 53 18 98 18 375 0 277 -2 322 -18 375
-56 181 -177 299 -349 340 -78 18 -224 18 -302 -1z m260 -223 c52 -24 101 -83
119 -145 22 -73 22 -620 0 -694 -32 -106 -110 -162 -225 -162 -118 0 -187 51
-221 161 -19 62 -20 89 -17 375 3 289 4 312 24 354 25 53 67 97 109 116 45 20
162 17 211 -5z"/>
<path d="M3580 1560 l0 -710 400 0 400 0 0 105 0 105 -262 2 -263 3 0 205 0
205 218 3 217 2 0 105 0 105 -217 2 -218 3 0 180 0 180 258 3 257 2 0 105 0
105 -395 0 -395 0 0 -710z"/>
<path d="M4542 1738 l3 -533 26 -68 c78 -199 242 -307 469 -307 247 0 432 138
485 361 12 53 15 154 15 572 l0 507 -135 0 -135 0 0 -472 c0 -278 -4 -499 -10
-537 -17 -102 -65 -175 -135 -201 -37 -14 -131 -15 -166 -2 -49 19 -97 71
-121 130 -22 56 -23 63 -26 570 l-3 512 -135 0 -135 0 3 -532z"/>
<path d="M5750 1560 l0 -710 135 0 135 0 0 286 0 286 118 -4 c102 -3 121 -6
148 -25 55 -39 67 -80 75 -253 9 -183 15 -222 35 -261 l15 -29 144 0 c80 0
145 3 145 7 0 3 -12 30 -26 60 -24 49 -27 69 -34 221 -5 92 -13 183 -19 202
-21 69 -67 128 -127 162 -51 28 -55 33 -39 42 46 27 117 103 142 155 25 51 28
66 27 161 0 132 -24 200 -95 276 -109 114 -184 134 -526 134 l-253 0 0 -710z
m483 486 c81 -29 116 -91 117 -204 0 -84 -14 -125 -59 -167 -32 -29 -35 -30
-152 -33 l-119 -4 0 204 c0 113 3 208 7 211 12 12 167 6 206 -7z"/>
<path d="M8482 1738 l3 -533 26 -68 c78 -199 242 -307 469 -307 247 0 432 138
485 361 12 53 15 154 15 572 l0 507 -135 0 -135 0 0 -472 c0 -278 -4 -499 -10
-537 -17 -102 -65 -175 -135 -201 -37 -14 -131 -15 -166 -2 -49 19 -97 71
-121 130 -22 56 -23 63 -26 570 l-3 512 -135 0 -135 0 3 -532z"/>
<path d="M9640 2165 l0 -105 250 0 c170 0 250 -3 250 -11 0 -6 -112 -249 -250
-540 -246 -522 -250 -531 -250 -595 l0 -64 410 0 410 0 0 105 0 105 -255 0
c-140 0 -255 3 -255 8 0 4 113 246 250 537 250 529 250 530 250 597 l0 68
-405 0 -405 0 0 -105z"/>
<path d="M7977 1093 c-4 -3 -7 -60 -7 -125 l0 -118 135 0 135 0 0 125 0 125
-128 0 c-71 0 -132 -3 -135 -7z"/>
</g>
</svg>
